<svg width="367" height="122" viewBox="0 0 367 122" fill="none" xmlns="http://www.w3.org/2000/svg">
<path d="M28.3345 39.216V78.448H47.9185V86H20.1425V39.216H28.3345ZM57.332 48.048C54.644 48.048 52.532 45.936 52.532 43.312C52.532 40.688 54.644 38.64 57.332 38.64C59.892 38.64 62.004 40.688 62.004 43.312C62.004 45.936 59.892 48.048 57.332 48.048ZM53.428 86V54.384H61.236V86H53.428ZM78.263 86L65.719 54.384H74.039L79.543 68.912C80.887 72.688 81.975 75.952 82.359 77.68C82.807 75.696 83.959 72.368 85.303 68.912L91.063 54.384H99.127L85.943 86H78.263ZM116.197 86.832C106.789 86.832 100.197 79.984 100.197 70.192C100.197 60.272 106.661 53.424 115.941 53.424C125.413 53.424 131.429 59.76 131.429 69.616V71.984L107.621 72.048C108.197 77.616 111.141 80.432 116.325 80.432C120.613 80.432 123.429 78.768 124.325 75.76H131.557C130.213 82.672 124.453 86.832 116.197 86.832ZM116.005 59.824C111.397 59.824 108.581 62.32 107.813 67.056H123.685C123.685 62.704 120.677 59.824 116.005 59.824ZM147.022 86H138.83V39.216H156.686C167.31 39.216 173.518 44.592 173.518 53.808C173.518 60.08 170.574 64.56 165.07 66.8L173.966 86H165.006L157.07 68.528H147.022V86ZM147.022 46.512V61.296H156.686C161.87 61.296 164.942 58.544 164.942 53.808C164.942 49.136 161.87 46.512 156.686 46.512H147.022ZM188.711 86.832C181.991 86.832 177.895 82.928 177.895 76.976C177.895 71.152 182.119 67.504 189.607 66.928L199.079 66.224V65.52C199.079 61.232 196.519 59.504 192.551 59.504C187.943 59.504 185.383 61.424 185.383 64.752H178.727C178.727 57.904 184.359 53.424 192.935 53.424C201.447 53.424 206.695 58.032 206.695 66.8V86H199.847L199.271 81.328C197.927 84.592 193.639 86.832 188.711 86.832ZM191.271 80.944C196.071 80.944 199.143 78.064 199.143 73.2V71.536L192.551 72.048C187.687 72.496 185.831 74.096 185.831 76.656C185.831 79.536 187.751 80.944 191.271 80.944ZM218.269 48.048C215.581 48.048 213.469 45.936 213.469 43.312C213.469 40.688 215.581 38.64 218.269 38.64C220.829 38.64 222.941 40.688 222.941 43.312C222.941 45.936 220.829 48.048 218.269 48.048ZM214.365 86V54.384H222.173V86H214.365ZM238.112 86H230.368V38.384H238.112V86Z" fill="white"/>
<path d="M328.538 60.9999C328.538 75.3557 316.856 87.0374 302.5 87.0374C288.145 87.0374 276.463 75.3557 276.463 60.9999C276.463 46.6442 288.145 34.9625 302.5 34.9625C316.856 35.1032 328.538 46.6442 328.538 60.9999ZM302.5 20.7475C280.263 20.7475 262.248 38.7626 262.248 60.9999C262.248 83.2373 280.263 101.252 302.5 101.252C324.738 101.252 342.753 83.2373 342.753 60.9999C342.753 38.7626 324.738 20.7475 302.5 20.7475Z" fill="#E42313"/>
<path d="M352.042 52.9777V69.1631H252.958V52.9777H352.042Z" fill="#243588"/>
<path d="M264.499 64.0963C263.796 64.9407 262.81 65.5037 261.544 65.5037C260.277 65.5037 259.292 64.9407 258.588 64.0963C258.025 63.3925 257.744 62.6888 257.744 61.5629V56.9184H259.433V61.5629C259.433 62.9703 260.277 63.9555 261.544 63.9555C262.81 63.9555 263.655 62.9703 263.655 61.5629V56.9184H265.344V61.4222C265.344 62.5481 265.062 63.2518 264.499 64.0963Z" fill="white"/>
<path d="M272.662 65.2222L268.159 59.4518V65.2222H266.47V56.7776H268.159L272.662 62.5482V56.7776H274.351V65.2222H272.662Z" fill="white"/>
<path d="M277.87 65.2222H275.478V56.7776H278.292C281.248 56.7776 282.796 58.7481 282.796 60.8592C282.937 63.2519 281.248 65.2222 277.87 65.2222ZM278.152 58.3259H277.166V63.8148H278.011C279.981 63.8148 281.248 62.6889 281.248 60.9999C281.248 59.311 280.122 58.3259 278.152 58.3259Z" fill="white"/>
<path d="M283.922 65.2222V56.7776H289.13V58.1851H285.611V59.874H288.567V61.2814H285.611V63.5334H289.552V65.0815H283.922V65.2222Z" fill="white"/>
<path d="M295.04 65.2222L292.789 61.8444H292.085V65.2222H290.396V56.7776H293.07C294.759 56.7776 295.885 57.6221 295.885 59.1703C295.885 60.1555 295.322 61 294.337 61.4222L297.011 65.0815H295.04V65.2222ZM292.929 58.3259H291.944V60.5777H292.789C293.774 60.5777 294.337 60.1555 294.337 59.4518C294.196 58.6073 293.774 58.3259 292.929 58.3259Z" fill="white"/>
<path d="M301.374 65.363C298.7 65.363 296.871 63.5333 296.871 60.9999C296.871 58.4665 298.841 56.6369 301.374 56.6369C302.36 56.6369 303.345 56.9184 304.33 57.3406V59.0295C303.486 58.4666 302.5 58.0443 301.515 58.0443C299.686 58.0443 298.56 59.311 298.56 60.9999C298.56 62.5481 299.686 63.8148 301.515 63.8148C301.937 63.8148 302.36 63.8148 302.782 63.674V61.8444H301.374V60.437H304.33V64.3778C303.345 65.0815 302.5 65.363 301.374 65.363Z" fill="white"/>
<path d="M310.382 65.2222L308.13 61.8444H307.426V65.2222H305.737V56.7776H308.411C310.1 56.7776 311.226 57.6221 311.226 59.1703C311.226 60.1555 310.663 61 309.678 61.4222L312.352 65.0815H310.382V65.2222ZM308.271 58.3259H307.285V60.5777H308.13C309.115 60.5777 309.678 60.1555 309.678 59.4518C309.537 58.6073 309.115 58.3259 308.271 58.3259Z" fill="white"/>
<path d="M316.574 65.363C314.181 65.363 312.211 63.5333 312.211 60.9999C312.211 58.4665 314.181 56.6369 316.574 56.6369C318.967 56.6369 320.937 58.4665 320.937 60.9999C320.937 63.5333 318.967 65.363 316.574 65.363ZM316.574 58.3258C315.026 58.3258 313.9 59.4518 313.9 61.1407C313.9 62.6889 315.026 63.8148 316.574 63.8148C318.122 63.8148 319.248 62.6889 319.248 61.1407C319.389 59.4518 318.122 58.3258 316.574 58.3258Z" fill="white"/>
<path d="M328.678 64.0963C327.974 64.9407 326.989 65.5037 325.722 65.5037C324.456 65.5037 323.471 64.9407 322.767 64.0963C322.204 63.3925 321.922 62.6888 321.922 61.5629V56.9184H323.611V61.5629C323.611 62.9703 324.456 63.9555 325.722 63.9555C326.989 63.9555 327.833 62.9703 327.833 61.5629V56.9184H329.522V61.4222C329.522 62.5481 329.241 63.2518 328.678 64.0963Z" fill="white"/>
<path d="M336.842 65.2222L332.338 59.4518V65.2222H330.649V56.7776H332.338L336.842 62.5482V56.7776H338.53V65.2222H336.842Z" fill="white"/>
<path d="M342.048 65.2222H339.656V56.7776H342.471C345.426 56.7776 346.974 58.7481 346.974 60.8592C347.115 63.2519 345.426 65.2222 342.048 65.2222ZM342.33 58.3259H341.345V63.8148H342.189C344.16 63.8148 345.426 62.6889 345.426 60.9999C345.426 59.311 344.3 58.3259 342.33 58.3259Z" fill="white"/>
</svg>
