<svg width="100" height="81" viewBox="0 0 100 81" fill="none" xmlns="http://www.w3.org/2000/svg">
<path d="M75.5794 40.2524C75.5794 54.6082 63.8978 66.2899 49.542 66.2899C35.1862 66.2899 23.5046 54.6082 23.5046 40.2524C23.5046 25.8967 35.1862 14.215 49.542 14.215C63.8978 14.3557 75.5794 25.8967 75.5794 40.2524ZM49.542 0C27.3046 0 9.28955 18.0151 9.28955 40.2524C9.28955 62.4898 27.3046 80.505 49.542 80.505C71.7794 80.505 89.7944 62.4898 89.7944 40.2524C89.7944 18.0151 71.7794 0 49.542 0Z" fill="#E42313"/>
<path d="M99.0831 32.2302V48.4156H0V32.2302H99.0831Z" fill="#243588"/>
<path d="M40 46V34H43.0423V43.4957H48V46H40Z" fill="white"/>
<path d="M56.7141 46L53.4588 41.2001H52.4415V46H50V34H53.8657C56.3072 34 57.9349 35.2 57.9349 37.4C57.9349 38.8 57.121 40.0001 55.6968 40.6001L59.5625 45.8H56.7141V46ZM53.6622 36.2001H52.238V39.4H53.4588C54.883 39.4 55.6968 38.8 55.6968 37.8C55.4933 36.6 54.8829 36.2001 53.6622 36.2001Z" fill="white"/>
</svg>
